:FULLY-SPECIFIED
:DEGREES
1975
root 8.06068 16.493 -2.87719 5346.36 -94.2515 -5330.85
lowerback -0.871289 4.00814 3.11875
upperback 1.83157 5.2923 -1.04562
thorax 2.75421 2.71085 -2.62597
lowerneck -19.2335 2.60041 -0.260615
upperneck 35.5894 2.30916 1.98586
head 15.8001 0.918806 1.2499
rclavicle -2.38542e-014 -9.54166e-015
rhumerus -19.0153 4.61702 -83.1629
rradius 45.9673
rwrist 13.7938
rhand -26.8838 -12.5061
rfingers 7.12502
rthumb -0.307821 -42.4856
lclavicle -2.38542e-014 -9.54166e-015
lhumerus -37.9244 2.22932 82.9044
lradius 26.6443
lwrist 3.5699
lhand -23.0358 6.31483
lfingers 7.12502
lthumb 3.40848 36.2673
rfemur -1.31618 4.46242 27.7111
rtibia 21.1408
rfoot -10.9083 -0.856863
rtoes -22.5566
lfemur -43.4706 0.935514 -16.8565
ltibia 16.3111
lfoot -7.35295 4.70938
ltoes -13.7783
1976
root 8.03108 16.4814 -2.85887 5347.02 -94.4341 -5331.58
lowerback -0.893259 4.00782 2.94477
upperback 1.76308 5.29577 -1.02927
thorax 2.67808 2.70722 -2.51457
lowerneck -19.1468 2.58133 -0.156374
upperneck 35.6329 2.19866 2.06678
head 15.8039 0.895064 1.24417
rclavicle 6.36111e-015 -2.3059e-014
rhumerus -19.3991 4.5796 -83.3659
rradius 46.5429
rwrist 13.6385
rhand -27.0183 -12.5956
rfingers 7.12502
rthumb -0.437806 -42.5749
lclavicle 6.36111e-015 -2.3059e-014
lhumerus -38.1911 2.55371 82.6734
lradius 26.1994
lwrist 3.21424
lhand -22.8245 6.4954
lfingers 7.12502
lthumb 3.61257 36.4445
rfemur -1.09426 4.31195 27.6127
rtibia 22.3769
rfoot -10.0926 0.0636352
rtoes -22.6633
lfemur -43.7862 0.67648 -16.6133
ltibia 18.415
lfoot -3.39014 4.87189
ltoes -12.3644
1977
root 8.00573 16.4688 -2.83987 5347.77 -94.3747 -5332.48
lowerback -0.706968 4.00734 2.63931
upperback 1.69253 5.30803 -1.11497
thorax 2.48117 2.70537 -2.4507
lowerneck -19.2101 2.49162 -0.127958
upperneck 35.7985 1.95528 2.2783
head 15.9035 0.822695 1.28804
rclavicle 4.13472e-014 -1.43125e-014
rhumerus -19.8201 4.15092 -83.6036
rradius 46.9877
rwrist 13.7605
rhand -27.2042 -12.5986
rfingers 7.12502
rthumb -0.617269 -42.5774
lclavicle 4.13472e-014 -1.43125e-014
lhumerus -38.3927 2.59084 82.5115
lradius 25.7743
lwrist 2.86699
lhand -22.5236 6.54039
lfingers 7.12502
lthumb 3.90314 36.4844
rfemur -1.1452 4.06673 27.3168
rtibia 24.2819
rfoot -9.17234 0.85229
rtoes -25.0707
lfemur -44.0817 0.651564 -16.8597
ltibia 20.4775
lfoot -0.811676 5.17408
ltoes -11.6588
1978
root 7.98478 16.4693 -2.82175 5357.67 -93.4729 -5342.39
lowerback -0.619368 3.93821 1.19439
upperback 1.61548 5.24625 -1.43905
thorax 2.24688 2.64854 -1.99772
lowerneck -19.2387 2.4272 -0.114862
upperneck 35.8685 1.80231 2.38796
head 15.9473 0.773866 1.30563
rclavicle 3.97569e-014 2.70347e-014
rhumerus -20.2792 3.80315 -83.8531
rradius 47.4202
rwrist 13.8335
rhand -27.3836 -12.5516
rfingers 7.12502
rthumb -0.790623 -42.5299
lclavicle 3.97569e-014 2.70347e-014
lhumerus -38.5477 2.65383 82.3731
lradius 25.3739
lwrist 2.50079
lhand -22.2504 6.72624
lfingers 7.12502
lthumb 4.16697 36.6652
rfemur -1.82552 3.71675 25.8443
rtibia 26.9165
rfoot -8.04256 1.80875
rtoes -25.0175
lfemur -44.4317 0.82335 -18.4894
ltibia 22.4383
lfoot 0.426802 4.67278
ltoes -7.19265
1979
root 7.96542 16.4625 -2.80369 5369.69 -92.7465 -5354.4
lowerback -0.596723 3.79816 -0.0540133
upperback 1.57735 5.0796 -1.70943
thorax 2.10246 2.54431 -1.59401
lowerneck -19.243 2.41442 -0.134395
upperneck 35.7933 1.74353 2.51736
head 15.9101 0.766475 1.35224
rclavicle -4.6118e-014 2.70347e-014
rhumerus -20.7166 3.43125 -84.1618
rradius 47.7215
rwrist 14.059
rhand -27.5445 -12.4606
rfingers 7.12502
rthumb -0.945972 -42.4382
lclavicle -4.6118e-014 2.70347e-014
lhumerus -38.5733 2.74841 82.2458
lradius 24.9426
lwrist 2.05053
lhand -22.0089 6.95778
lfingers 7.12502
lthumb 4.40014 36.8921
rfemur -2.98924 3.14542 24.5372
rtibia 30.1849
rfoot -6.52385 2.70589
rtoes -25.1957
lfemur -44.6671 0.960982 -19.9113
ltibia 24.3523
lfoot 1.00329 4.91591
ltoes -8.38917
1980
root 7.95044 16.4506 -2.78732 5379.7 -92.3392 -5364.49
lowerback -0.490903 3.70772 -0.788068
upperback 1.60435 4.9676 -1.93935
thorax 2.0257 2.47638 -1.43341
lowerneck -19.203 2.35056 -0.208294
upperneck 35.5921 1.61025 2.72203
head 15.8003 0.73506 1.42367
rclavicle -7.4743e-014 1.35174e-014
rhumerus -21.1533 2.8779 -84.5324
rradius 47.9895
rwrist 14.1795
rhand -27.731 -12.4895
rfingers 7.12502
rthumb -1.12608 -42.4662
lclavicle -7.4743e-014 1.35174e-014
lhumerus -38.4239 2.67723 82.0891
lradius 24.4491
lwrist 1.8031
lhand -21.7748 6.88472
lfingers 7.12502
lthumb 4.62618 36.8142
rfemur -4.40501 2.13959 23.5739
rtibia 33.8721
rfoot -4.36206 3.7545
rtoes -23.9037
lfemur -44.7142 1.19926 -20.9303
ltibia 26.223
lfoot 0.735161 5.37351
ltoes -11.7368
1981
root 7.944 16.4395 -2.76815 5384.5 -92.0363 -5369.43
lowerback -0.316265 3.57089 -1.08012
upperback 1.66355 4.78478 -2.11211
thorax 1.97584 2.38026 -1.46268
lowerneck -19.2085 2.34164 -0.259535
upperneck 35.4225 1.57037 2.875
head 15.7164 0.737506 1.48747
rclavicle -3.65764e-014 5.96354e-014
rhumerus -21.5464 2.34735 -84.9797
rradius 48.1001
rwrist 14.2802
rhand -28.1183 -12.4973
rfingers 7.12502
rthumb -1.50017 -42.4718
lclavicle -3.65764e-014 5.96354e-014
lhumerus -38.1892 2.46029 81.9789
lradius 23.9769
lwrist 1.52908
lhand -21.5365 6.97751
lfingers 7.12502
lthumb 4.85629 36.9019
rfemur -5.97635 0.747487 22.8633
rtibia 37.694
rfoot -1.53698 4.61234
rtoes -20.7159
lfemur -44.7229 1.23321 -21.5254
ltibia 28.0857
lfoot -0.0904291 3.97479
ltoes -10.7775
